<svg id="shopping-cart" xmlns="http://www.w3.org/2000/svg" width="21.531" height="20" viewBox="0 0 21.531 20">
  <path id="Path_1153" data-name="Path 1153" d="M5.792,2H1V4H4.218L6.987,16.678H7V17H20v-.248l2.193-9.661L22.531,6H6.655l-.57-2.611Zm14.2,6H7.092l1.529,7H18.4Z" transform="translate(-1 -2)" fill-rule="evenodd"/>
  <path id="Path_1154" data-name="Path 1154" d="M10,22a2,2,0,1,0-2-2A2,2,0,0,0,10,22Z" transform="translate(-1 -2)"/>
  <path id="Path_1155" data-name="Path 1155" d="M19,20a2,2,0,1,1-2-2A2,2,0,0,1,19,20Z" transform="translate(-1 -2)"/>
</svg>
