<?xml version="1.0" ?><!DOCTYPE svg  PUBLIC '-//W3C//DTD SVG 1.1//EN'  'http://www.w3.org/Graphics/SVG/1.1/DTD/svg11.dtd'><svg enable-background="new 0 0 24 24" height="24px" id="Layer_1" version="1.1" viewBox="0 0 24 24" width="24px" xml:space="preserve" xmlns="http://www.w3.org/2000/svg" xmlns:xlink="http://www.w3.org/1999/xlink"><path d="M22,5c-1.1,0-2,0.9-2,2v11c0,1.7-1.1,3-2.8,3c-0.6,0-1.3-0.2-1.8-0.5c1-1.4,1.5-3.1,1.5-5c0-0.2,0-6.8,0-7  C17,3.8,13.2,0,8.5,0S0,3.8,0,8.5c0,0.2,0,6.8,0,7C0,20.2,4.1,24,8.8,24c2.5,0,4.8-1.1,6.3-2.7c0.6,0.5,1.2,0.7,2.1,0.7  c2.2,0,3.8-1.8,3.8-4V7c0-0.6,0.4-1,1-1s1,0.4,1,1v7.5c0,0.3,0.2,0.5,0.5,0.5s0.5-0.2,0.5-0.5V7C24,5.9,23.1,5,22,5z M15,8.5  c0,0,0,0.7,0,1.5H9V2C13,2.3,15,5.1,15,8.5z M2,8.5C2,5.1,5,2.3,8,2v8H2C2,9.2,2,8.5,2,8.5z M8.5,22C4.9,22,2,19.1,2,15.5  C2,15.4,2,13,2,11h13c0,2,0,4.4,0,4.5C15,19.1,12.1,22,8.5,22z"/></svg>