<?xml version="1.0" ?><svg id="Layer_1" style="enable-background:new 0 0 156 128;" version="1.1" viewBox="0 0 156 128" xml:space="preserve" xmlns="http://www.w3.org/2000/svg" xmlns:xlink="http://www.w3.org/1999/xlink"><style type="text/css">
	.st0{clip-path:url(#SVGID_3_);stroke:#000000;stroke-width:2;stroke-miterlimit:10;}
	.st1{clip-path:url(#SVGID_5_);fill:#FFFFFF;}
	.st2{clip-path:url(#SVGID_7_);fill:#7673C0;}
	.st3{clip-path:url(#SVGID_9_);fill:#EB001B;}
	.st4{clip-path:url(#SVGID_11_);fill:#00A1DF;}
	.st5{clip-path:url(#SVGID_13_);fill:#00A1DF;}
</style><g><g><g><path d="M14,30c0-3.3,2.7-6,6-6h116c3.3,0,6,2.7,6,6v68c0,3.3-2.7,6-6,6H20c-3.3,0-6-2.7-6-6V30z" id="SVGID_1_"/></g><g><defs><path d="M14,30c0-3.3,2.7-6,6-6h116c3.3,0,6,2.7,6,6v68c0,3.3-2.7,6-6,6H20c-3.3,0-6-2.7-6-6V30z" id="SVGID_2_"/></defs><clipPath id="SVGID_3_"><use style="overflow:visible;" xlink:href="#SVGID_2_"/></clipPath><path class="st0" d="M14,30c0-3.3,2.7-6,6-6h116c3.3,0,6,2.7,6,6v68c0,3.3-2.7,6-6,6H20c-3.3,0-6-2.7-6-6V30z"/></g></g><g><g><g><defs><path d="M103.6,92.1v0.2h0.1h0.1c0,0,0,0,0-0.1c0,0,0,0,0-0.1H103.6L103.6,92.1z M103.7,92c0.1,0,0.1,0,0.2,0.1       l0.1,0.1v0.1l-0.1,0.1l0.2,0.2H104l-0.2-0.2h-0.1v0.2h-0.1L103.7,92L103.7,92z M103.7,92.8c0.1,0,0.1,0,0.2,0s0.1-0.1,0.1-0.1       c0.1-0.1,0.2-0.3,0.1-0.4c0-0.2-0.1-0.3-0.3-0.3c-0.1,0-0.1,0-0.2,0s-0.1,0-0.2,0s-0.1,0.1-0.2,0.1c-0.2,0.2-0.2,0.5,0,0.6       C103.5,92.7,103.6,92.7,103.7,92.8L103.7,92.8z M103.7,91.7c0.1,0,0.2,0,0.2,0c0.1,0,0.1,0.1,0.2,0.1c0.1,0.1,0.1,0.1,0.1,0.2       c0.1,0.2,0.1,0.3,0,0.5c0,0.1-0.1,0.1-0.1,0.2c-0.1,0.1-0.1,0.1-0.2,0.1s-0.2,0.1-0.2,0.1c-0.2,0-0.5-0.1-0.6-0.4       c-0.1-0.2-0.1-0.3,0-0.5c0-0.1,0.1-0.1,0.1-0.2c0.1-0.1,0.1-0.1,0.2-0.1C103.5,91.7,103.6,91.7,103.7,91.7L103.7,91.7z        M94.5,86.3c0.3,0,0.6,0.1,0.9,0.2L95,87.8c-0.3-0.1-0.5-0.2-0.8-0.2c-0.9,0-1.3,0.6-1.3,1.6v3.4h-1.3v-6.1H93v0.7       C93.3,86.7,93.9,86.3,94.5,86.3L94.5,86.3z M90,87.7h-2.2v2.8c0,0.6,0.2,1,0.9,1c0.4,0,0.8-0.1,1.2-0.3l0.4,1.1       c-0.5,0.3-1.1,0.5-1.7,0.5c-1.6,0-2.1-0.8-2.1-2.3v-2.8h-1.2v-1.2h1.2v-1.8h1.3v1.8H90V87.7z M83.6,88       c-0.6-0.3-1.2-0.5-1.9-0.5c-0.7,0-1.2,0.3-1.2,0.7c0,0.4,0.5,0.5,1,0.6l0.6,0.1c1.3,0.2,2.1,0.8,2.1,1.8s-1,2-2.8,2       c-0.9,0-1.9-0.3-2.6-0.8l0.6-1c0.6,0.4,1.3,0.7,2,0.6c0.9,0,1.4-0.3,1.4-0.7c0-0.3-0.3-0.5-1.1-0.6l-0.6-0.1       c-1.4-0.2-2.1-0.8-2.1-1.8c0-1.2,1-2,2.6-2c0.9,0,1.7,0.2,2.5,0.6L83.6,88z M73.5,89c0-0.9,0.8-1.5,1.6-1.5       c0.4,0,0.8,0.1,1.1,0.4c0.3,0.3,0.5,0.7,0.5,1.1H73.5z M78,89.5c0-1.9-1.2-3.2-2.9-3.2c-1.8,0-3.2,1.5-3.1,3.2       c0,1.8,1.5,3.2,3.2,3.1c0.9,0,1.8-0.3,2.5-0.9l-0.6-1c-0.5,0.4-1.1,0.6-1.8,0.6c-0.9,0.1-1.7-0.6-1.8-1.5H78       C78,89.9,78,89.7,78,89.5z M99.1,87.6c-0.3,0-0.5,0-0.8,0.1c-0.2,0.1-0.4,0.2-0.6,0.4c-0.2,0.2-0.3,0.4-0.4,0.6       c-0.2,0.5-0.2,1.1,0,1.6c0.1,0.2,0.2,0.5,0.4,0.6c0.2,0.2,0.4,0.3,0.6,0.4c0.5,0.2,1,0.2,1.5,0c0.2-0.1,0.5-0.2,0.6-0.4       c0.2-0.2,0.3-0.4,0.4-0.6c0.2-0.5,0.2-1.1,0-1.6c-0.1-0.2-0.2-0.5-0.4-0.6c-0.2-0.2-0.4-0.3-0.6-0.4S99.4,87.6,99.1,87.6       L99.1,87.6z M99.1,86.3c0.4,0,0.9,0.1,1.3,0.2c0.4,0.2,0.8,0.4,1.1,0.7c0.3,0.3,0.5,0.6,0.7,1c0.3,0.8,0.3,1.7,0,2.6       c-0.2,0.4-0.4,0.7-0.7,1c-0.3,0.3-0.7,0.5-1,0.7c-0.8,0.3-1.8,0.3-2.6,0c-0.4-0.2-0.7-0.4-1-0.7c-0.3-0.3-0.5-0.6-0.7-1       c-0.3-0.8-0.3-1.7,0-2.6c0.2-0.4,0.4-0.7,0.7-1c0.3-0.3,0.6-0.5,1-0.7C98.2,86.4,98.7,86.3,99.1,86.3L99.1,86.3z M65.9,89.5       c0.1-1,0.9-1.8,1.9-1.7c1,0,1.8,0.9,1.8,1.9s-0.8,1.8-1.8,1.8c-0.5,0-1-0.2-1.4-0.6C66,90.5,65.8,90,65.9,89.5L65.9,89.5z        M70.8,89.5v-3h-1.3v0.7c-0.5-0.6-1.2-0.9-1.9-0.9c-1.8,0-3.2,1.4-3.2,3.2s1.4,3.2,3.2,3.2c0.7,0,1.5-0.3,1.9-0.9v0.7h1.3V89.5       z M63.3,92.6v-3.8c0-0.6-0.2-1.3-0.6-1.7c-0.5-0.5-1.1-0.7-1.7-0.7c-0.9-0.1-1.7,0.4-2.1,1.1c-0.4-0.7-1.2-1.1-2-1.1       c-0.7,0-1.4,0.3-1.8,0.9v-0.8h-1.3v6.1H55v-3.4c-0.1-0.4,0.1-0.8,0.4-1.2c0.3-0.3,0.7-0.5,1.1-0.5c0.9,0,1.3,0.6,1.3,1.6v3.4       h1.3v-3.4c-0.1-0.4,0.1-0.8,0.4-1.2c0.3-0.3,0.7-0.5,1.1-0.5c0.9,0,1.3,0.6,1.3,1.6v3.4L63.3,92.6z" id="SVGID_4_"/></defs><clipPath id="SVGID_5_"><use style="overflow:visible;" xlink:href="#SVGID_4_"/></clipPath><rect class="st1" height="21.6" width="64" x="47" y="78"/></g></g><g><g><defs><rect height="36.1" id="SVGID_6_" width="20.1" x="68" y="40"/></defs><clipPath id="SVGID_7_"><use style="overflow:visible;" xlink:href="#SVGID_6_"/></clipPath><rect class="st2" height="49.4" width="33.4" x="61.3" y="33.4"/></g></g><g><g><defs><path d="M69.2,58.1c0-7,3.2-13.7,8.8-18c-9.4-7.4-22.9-6.3-31.1,2.5c-8.1,8.8-8.1,22.4,0,31.1       c8.1,8.8,21.6,9.9,31.1,2.5C72.5,71.8,69.2,65.1,69.2,58.1z" id="SVGID_8_"/></defs><clipPath id="SVGID_9_"><use style="overflow:visible;" xlink:href="#SVGID_8_"/></clipPath><rect class="st3" height="59.2" width="50.5" x="34.2" y="28.5"/></g></g><g><g><defs><path d="M114.4,72.3v-0.9h-0.2l-0.3,0.6l-0.3-0.6h-0.2v0.9h0.2v-0.7l0.2,0.6h0.2l0.2-0.6v0.7H114.4z        M112.9,72.3v-0.7h0.3v-0.2h-0.8v0.2h0.3v0.7H112.9z" id="SVGID_10_"/></defs><clipPath id="SVGID_11_"><use style="overflow:visible;" xlink:href="#SVGID_10_"/></clipPath><rect class="st4" height="14.2" width="15.3" x="105.8" y="64.7"/></g></g><g><g><defs><path d="M115.1,58.1c0,8.8-5,16.8-12.9,20.6S84.9,81.5,78,76.1c5.5-4.4,8.8-11,8.8-18s-3.2-13.7-8.8-18       c6.9-5.4,16.3-6.4,24.2-2.6S115.1,49.3,115.1,58.1L115.1,58.1z" id="SVGID_12_"/></defs><clipPath id="SVGID_13_"><use style="overflow:visible;" xlink:href="#SVGID_12_"/></clipPath><rect class="st5" height="59.3" width="50.5" x="71.3" y="28.4"/></g></g></g></g></svg>