<?xml version="1.0" ?><!DOCTYPE svg  PUBLIC '-//W3C//DTD SVG 1.1//EN'  'http://www.w3.org/Graphics/SVG/1.1/DTD/svg11.dtd'><svg enable-background="new 0 0 91 91" height="91px" id="Layer_1" version="1.1" viewBox="0 0 91 91" width="91px" xml:space="preserve" xmlns="http://www.w3.org/2000/svg" xmlns:xlink="http://www.w3.org/1999/xlink"><g><path d="M25.155,36.687c0.059,0.006,0.115,0.008,0.172,0.008c0.449,0,0.883-0.176,1.203-0.498l1.434-1.436l9.941,9.939   l-14.76,14.758c-1.189,1.189-1.76,2.832-1.604,4.625c0.148,1.682,0.928,3.307,2.178,4.553l0.123,0.127   c1.461,1.457,3.342,2.203,5.135,2.203c1.518,0,2.973-0.533,4.061-1.621l10.992-10.99l12.355,12.52   c1.051,1.051,2.494,1.631,4.063,1.631c1.854,0,3.723-0.807,5.232-2.32c1.271-1.27,2.049-2.893,2.195-4.574   c0.154-1.791-0.414-3.434-1.598-4.615l-9.512-9.643c3.203-0.004,6.268-1.385,9.059-4.176l3.883-3.883   c4.248-4.246,2.99-9.246,1-14.018l-0.979-2.344l-6.281,6.287c-0.926,0.928-1.76,1.461-2.473,1.584   c-0.459,0.082-1.17,0.064-2.203-0.973l-0.121-0.117c-1.023-1.023-1.816-2.225,0.623-4.666l6.287-6.283l-2.342-0.979   c-4.771-1.992-9.77-3.242-14.016,1l-3.889,3.885c-4.348,4.354-5.59,9.355-3.588,14.24c-0.121,0.1-0.238,0.205-0.35,0.316   l-1.068,1.068l-9.941-9.939l1.564-1.564c0.361-0.361,0.541-0.867,0.488-1.377c-0.053-0.508-0.33-0.965-0.758-1.246l-7.883-5.178   c-0.674-0.441-1.566-0.354-2.137,0.219l-2.699,2.703c-0.568,0.57-0.658,1.463-0.217,2.135l5.18,7.881   C24.187,36.356,24.647,36.634,25.155,36.687z M63.866,63.39c0.469,0.469,0.689,1.152,0.621,1.928   c-0.076,0.885-0.504,1.758-1.311,2.568c-0.775,0.775-1.77,1.219-2.729,1.219c-0.467,0-1.133-0.109-1.65-0.625L43.466,52.942   l5.08-5.08L63.866,63.39z M43.782,43.632c0.191-0.191,0.436-0.34,0.746-0.457l1.84-0.689l-0.947-1.721   c-2.209-4.02-1.434-7.953,2.299-11.688l3.889-3.885c1.982-1.984,4.186-2.363,7.885-1.17l-2.623,2.621   c-4.393,4.395-2.275,7.822-0.609,9.488l0.121,0.117c1.973,1.979,3.904,2.125,5.176,1.906c1.438-0.252,2.844-1.08,4.295-2.531   l2.621-2.623c1.191,3.705,0.813,5.908-1.17,7.889l-3.883,3.885c-3.475,3.475-7.16,4.094-11.248,1.922l-1.324-1.342   c-0.529-0.535-1.186-0.951-1.953-1.24l-1.023-0.385l-3.066,3.064L42.714,44.7L43.782,43.632z M42.403,49.198l-3.068,3.068   l0.385,1.023c0.285,0.76,0.701,1.414,1.229,1.941l0.693,0.701l-11.008,11.01c-1.045,1.047-3.016,0.785-4.371-0.564l-0.123-0.129   c-0.703-0.701-1.133-1.574-1.209-2.461c-0.068-0.773,0.152-1.459,0.619-1.926l14.76-14.758L42.403,49.198z M23.071,26.593   l4.98,3.273l-2.449,2.449l-3.275-4.979L23.071,26.593z"/></g></svg>