<?xml version="1.0" ?><svg data-name="Your Icons" id="Your_Icons" viewBox="0 0 48 48" xmlns="http://www.w3.org/2000/svg"><title/><path d="M41.21,19l-1.12-2a3.82,3.82,0,0,0-3.34-2H28v0a4,4,0,0,0-4-4H8a4,4,0,0,0-4,4V30a4,4,0,0,0,4,4H8.1a5,5,0,0,0,9.8,0H30.1a5,5,0,0,0,9.8,0h.28A3.82,3.82,0,0,0,44,30.18V25a3.73,3.73,0,0,0-.48-1.85ZM40,21l1.1,2,.56,1H35a1,1,0,0,1-1-1V22a1,1,0,0,1,1-1ZM13,36a3,3,0,0,1-2.94-2.45A2.51,2.51,0,0,1,10,33a3,3,0,0,1,6,0,2.51,2.51,0,0,1-.06.55A3,3,0,0,1,13,36Zm4.9-4h0l0-.09a5.16,5.16,0,0,0-.24-.79l-.16-.32a3.67,3.67,0,0,0-.26-.48L17,30a3.79,3.79,0,0,0-.32-.38,2.65,2.65,0,0,0-.29-.29L16,29a4,4,0,0,0-.34-.23l-.46-.25-.35-.16a4.75,4.75,0,0,0-.57-.18L14,28.1a4.56,4.56,0,0,0-1.9,0l-.31.08a4.75,4.75,0,0,0-.57.18l-.35.16-.46.25A4,4,0,0,0,10,29l-.38.32a2.65,2.65,0,0,0-.29.29A3.79,3.79,0,0,0,9,30c-.08.11-.16.21-.24.33a3.67,3.67,0,0,0-.26.48c0,.11-.11.21-.16.32a5.16,5.16,0,0,0-.24.79l0,.09H8a2,2,0,0,1-2-2V15a2,2,0,0,1,2-2H24a2,2,0,0,1,2,2v9H11a1,1,0,0,0,0,2H26v6ZM35,36a3,3,0,0,1-2.94-2.45A2.51,2.51,0,0,1,32,33a3,3,0,0,1,6,0,2.51,2.51,0,0,1-.06.55A3,3,0,0,1,35,36Zm7-5.82A1.83,1.83,0,0,1,40.18,32H39.9l0-.09a5.16,5.16,0,0,0-.24-.79l-.16-.32a3.67,3.67,0,0,0-.26-.48c-.08-.12-.16-.22-.24-.33a3.79,3.79,0,0,0-.32-.38,2.65,2.65,0,0,0-.29-.29L38,29a4,4,0,0,0-.34-.23l-.46-.25-.35-.16a4.75,4.75,0,0,0-.57-.18L36,28.1a4.56,4.56,0,0,0-1.9,0l-.31.08a4.75,4.75,0,0,0-.57.18l-.35.16-.46.25A4,4,0,0,0,32,29l-.38.32a2.65,2.65,0,0,0-.29.29A3.79,3.79,0,0,0,31,30l-.24.33a3.67,3.67,0,0,0-.26.48l-.16.32a5.16,5.16,0,0,0-.24.79l0,.09H28V17h8.75a1.82,1.82,0,0,1,1.59.94L38.93,19H35a3,3,0,0,0-3,3v1a3,3,0,0,0,3,3h7Z"/></svg>